<svg width="205" height="42" viewBox="0 0 205 42" fill="none" xmlns="http://www.w3.org/2000/svg">
<path d="M48.8693 11.3153V9.90909H58.6875V11.3153H54.571V23H52.9858V11.3153H48.8693ZM60.9295 23V13.1818H62.438V23H60.9295ZM61.6966 11.5455C61.4025 11.5455 61.149 11.4453 60.9359 11.245C60.7271 11.0447 60.6227 10.804 60.6227 10.5227C60.6227 10.2415 60.7271 10.0007 60.9359 9.80043C61.149 9.60014 61.4025 9.5 61.6966 9.5C61.9906 9.5 62.242 9.60014 62.4508 9.80043C62.6639 10.0007 62.7704 10.2415 62.7704 10.5227C62.7704 10.804 62.6639 11.0447 62.4508 11.245C62.242 11.4453 61.9906 11.5455 61.6966 11.5455ZM69.1896 23.2045C68.2692 23.2045 67.4766 22.9872 66.8118 22.5526C66.147 22.1179 65.6357 21.5192 65.2777 20.7564C64.9197 19.9936 64.7408 19.1222 64.7408 18.142C64.7408 17.1449 64.924 16.2649 65.2905 15.5021C65.6612 14.7351 66.1768 14.1364 66.8374 13.706C67.5021 13.2713 68.2777 13.054 69.1641 13.054C69.8544 13.054 70.4766 13.1818 71.0305 13.4375C71.5845 13.6932 72.0384 14.0511 72.392 14.5114C72.7457 14.9716 72.9652 15.5085 73.0504 16.1222H71.5419C71.4268 15.6747 71.1712 15.2784 70.7749 14.9332C70.3828 14.5838 69.8544 14.4091 69.1896 14.4091C68.6016 14.4091 68.0859 14.5625 67.6428 14.8693C67.2038 15.1719 66.8608 15.6001 66.6136 16.1541C66.3707 16.7038 66.2493 17.3494 66.2493 18.0909C66.2493 18.8494 66.3686 19.5099 66.6072 20.0724C66.8501 20.6349 67.1911 21.0717 67.63 21.3828C68.0732 21.6939 68.593 21.8494 69.1896 21.8494C69.5817 21.8494 69.9375 21.7812 70.2571 21.6449C70.5767 21.5085 70.8473 21.3125 71.0689 21.0568C71.2905 20.8011 71.4482 20.4943 71.5419 20.1364H73.0504C72.9652 20.7159 72.7543 21.2379 72.4176 21.7024C72.0852 22.1626 71.6442 22.5291 71.0945 22.8018C70.549 23.0703 69.9141 23.2045 69.1896 23.2045ZM76.6619 19.4205L76.6364 17.554H76.9432L81.2386 13.1818H83.1051L78.5284 17.8097H78.4006L76.6619 19.4205ZM75.2557 23V9.90909H76.7642V23H75.2557ZM81.4943 23L77.6591 18.142L78.733 17.0938L83.4119 23H81.4943ZM88.7589 23.2045C87.8129 23.2045 86.9968 22.9957 86.3107 22.5781C85.6289 22.1562 85.1026 21.5682 84.7319 20.8139C84.3654 20.0554 84.1822 19.1733 84.1822 18.1676C84.1822 17.1619 84.3654 16.2756 84.7319 15.5085C85.1026 14.7372 85.6183 14.1364 86.2788 13.706C86.9435 13.2713 87.7191 13.054 88.6055 13.054C89.1168 13.054 89.6218 13.1392 90.1204 13.3097C90.619 13.4801 91.0728 13.7571 91.4819 14.1406C91.891 14.5199 92.217 15.0227 92.4599 15.6491C92.7028 16.2756 92.8242 17.0469 92.8242 17.9631V18.6023H85.256V17.2983H91.2901C91.2901 16.7443 91.1793 16.25 90.9577 15.8153C90.7404 15.3807 90.4293 15.0376 90.0245 14.7862C89.6239 14.5348 89.1509 14.4091 88.6055 14.4091C88.0046 14.4091 87.4847 14.5582 87.0458 14.8565C86.6112 15.1506 86.2766 15.5341 86.0423 16.0071C85.8079 16.4801 85.6907 16.9872 85.6907 17.5284V18.3977C85.6907 19.1392 85.8185 19.7678 86.0742 20.2834C86.3342 20.7947 86.6942 21.1847 87.1545 21.4531C87.6147 21.7173 88.1495 21.8494 88.7589 21.8494C89.1552 21.8494 89.5131 21.794 89.8327 21.6832C90.1566 21.5682 90.4357 21.3977 90.6701 21.1719C90.9045 20.9418 91.0856 20.6562 91.2134 20.3153L92.6708 20.7244C92.5174 21.2188 92.2596 21.6534 91.8974 22.0284C91.5352 22.3991 91.0877 22.6889 90.555 22.8977C90.0224 23.1023 89.4237 23.2045 88.7589 23.2045ZM99.3888 13.1818V14.4602H94.3008V13.1818H99.3888ZM95.7837 10.8295H97.2923V20.1875C97.2923 20.6136 97.354 20.9332 97.4776 21.1463C97.6055 21.3551 97.7674 21.4957 97.9634 21.5682C98.1637 21.6364 98.3746 21.6705 98.5962 21.6705C98.7624 21.6705 98.8988 21.6619 99.0053 21.6449C99.1119 21.6236 99.1971 21.6065 99.261 21.5938L99.5678 22.9489C99.4656 22.9872 99.3228 23.0256 99.1396 23.0639C98.9563 23.1065 98.7241 23.1278 98.4428 23.1278C98.0167 23.1278 97.5991 23.0362 97.19 22.853C96.7852 22.6697 96.4485 22.3906 96.18 22.0156C95.9158 21.6406 95.7837 21.1676 95.7837 20.5966V10.8295ZM101.658 23V13.1818H103.167V23H101.658ZM102.425 11.5455C102.131 11.5455 101.877 11.4453 101.664 11.245C101.456 11.0447 101.351 10.804 101.351 10.5227C101.351 10.2415 101.456 10.0007 101.664 9.80043C101.877 9.60014 102.131 9.5 102.425 9.5C102.719 9.5 102.971 9.60014 103.179 9.80043C103.392 10.0007 103.499 10.2415 103.499 10.5227C103.499 10.804 103.392 11.0447 103.179 11.245C102.971 11.4453 102.719 11.5455 102.425 11.5455ZM107.438 17.0938V23H105.93V13.1818H107.387V14.7159H107.515C107.745 14.2173 108.094 13.8168 108.563 13.5142C109.032 13.2074 109.637 13.054 110.378 13.054C111.043 13.054 111.625 13.1903 112.123 13.4631C112.622 13.7315 113.01 14.1406 113.287 14.6903C113.564 15.2358 113.702 15.9261 113.702 16.7614V23H112.194V16.8636C112.194 16.0923 111.993 15.4915 111.593 15.0611C111.192 14.6264 110.643 14.4091 109.944 14.4091C109.462 14.4091 109.032 14.5135 108.653 14.7223C108.278 14.9311 107.981 15.2358 107.764 15.6364C107.547 16.0369 107.438 16.5227 107.438 17.0938ZM120.422 26.8864C119.693 26.8864 119.067 26.7926 118.543 26.6051C118.018 26.4219 117.582 26.179 117.232 25.8764C116.887 25.5781 116.612 25.2585 116.408 24.9176L117.609 24.0739C117.746 24.2528 117.918 24.4574 118.127 24.6875C118.336 24.9219 118.621 25.1243 118.984 25.2947C119.35 25.4695 119.83 25.5568 120.422 25.5568C121.214 25.5568 121.869 25.3651 122.384 24.9815C122.9 24.598 123.158 23.9972 123.158 23.179V21.1847H123.03C122.919 21.3636 122.761 21.5852 122.557 21.8494C122.357 22.1094 122.067 22.3416 121.688 22.5462C121.312 22.7464 120.805 22.8466 120.166 22.8466C119.374 22.8466 118.662 22.6591 118.031 22.2841C117.405 21.9091 116.908 21.3636 116.542 20.6477C116.18 19.9318 115.999 19.0625 115.999 18.0398C115.999 17.0341 116.175 16.1584 116.529 15.4126C116.883 14.6626 117.375 14.0831 118.006 13.674C118.636 13.2607 119.365 13.054 120.192 13.054C120.831 13.054 121.338 13.1605 121.713 13.3736C122.092 13.5824 122.382 13.821 122.582 14.0895C122.787 14.3537 122.945 14.571 123.055 14.7415H123.209V13.1818H124.666V23.2812C124.666 24.125 124.474 24.8111 124.091 25.3395C123.712 25.8722 123.2 26.2621 122.557 26.5092C121.918 26.7607 121.206 26.8864 120.422 26.8864ZM120.371 21.4915C120.976 21.4915 121.487 21.353 121.905 21.076C122.322 20.799 122.64 20.4006 122.857 19.8807C123.075 19.3608 123.183 18.7386 123.183 18.0142C123.183 17.3068 123.077 16.6825 122.864 16.1413C122.651 15.6001 122.335 15.1761 121.918 14.8693C121.5 14.5625 120.984 14.4091 120.371 14.4091C119.732 14.4091 119.199 14.571 118.773 14.8949C118.351 15.2187 118.033 15.6534 117.82 16.1989C117.612 16.7443 117.507 17.3494 117.507 18.0142C117.507 18.696 117.614 19.299 117.827 19.8232C118.044 20.343 118.364 20.7521 118.786 21.0504C119.212 21.3445 119.74 21.4915 120.371 21.4915ZM127.185 23V9.90909H129.952V20.718H135.565V23H127.185ZM140.146 23.1854C139.52 23.1854 138.961 23.0767 138.471 22.8594C137.981 22.6378 137.594 22.3118 137.308 21.8814C137.027 21.4467 136.886 20.9055 136.886 20.2578C136.886 19.7124 136.986 19.2543 137.187 18.8835C137.387 18.5128 137.66 18.2145 138.005 17.9886C138.35 17.7628 138.742 17.5923 139.181 17.4773C139.624 17.3622 140.089 17.2812 140.574 17.2344C141.145 17.1747 141.606 17.1193 141.955 17.0682C142.305 17.0128 142.558 16.9318 142.716 16.8253C142.873 16.7187 142.952 16.5611 142.952 16.3523V16.3139C142.952 15.9091 142.824 15.5959 142.569 15.3743C142.317 15.1527 141.959 15.0419 141.495 15.0419C141.005 15.0419 140.615 15.1506 140.325 15.3679C140.035 15.581 139.844 15.8494 139.75 16.1733L137.231 15.9688C137.359 15.3722 137.611 14.8565 137.986 14.4219C138.361 13.983 138.844 13.6463 139.437 13.4119C140.033 13.1733 140.724 13.054 141.508 13.054C142.053 13.054 142.575 13.1179 143.074 13.2457C143.577 13.3736 144.022 13.5717 144.41 13.8402C144.802 14.1087 145.111 14.4538 145.336 14.8757C145.562 15.2933 145.675 15.794 145.675 16.3778V23H143.093V21.6385H143.016C142.858 21.9453 142.648 22.2159 142.383 22.4503C142.119 22.6804 141.802 22.8615 141.431 22.9936C141.06 23.1214 140.632 23.1854 140.146 23.1854ZM140.926 21.3061C141.327 21.3061 141.68 21.2273 141.987 21.0696C142.294 20.9077 142.535 20.6903 142.709 20.4176C142.884 20.1449 142.971 19.8359 142.971 19.4908V18.4489C142.886 18.5043 142.769 18.5554 142.62 18.6023C142.475 18.6449 142.311 18.6854 142.128 18.7237C141.944 18.7578 141.761 18.7898 141.578 18.8196C141.395 18.8452 141.229 18.8686 141.079 18.8899C140.76 18.9368 140.481 19.0114 140.242 19.1136C140.003 19.2159 139.818 19.3544 139.686 19.5291C139.554 19.6996 139.488 19.9126 139.488 20.1683C139.488 20.5391 139.622 20.8224 139.89 21.0185C140.163 21.2102 140.508 21.3061 140.926 21.3061ZM147.839 23V9.90909H150.562V14.831H150.645C150.764 14.5668 150.937 14.2983 151.163 14.0256C151.393 13.7486 151.691 13.5185 152.058 13.3352C152.428 13.1477 152.889 13.054 153.438 13.054C154.154 13.054 154.815 13.2415 155.42 13.6165C156.025 13.9872 156.509 14.5476 156.871 15.2976C157.233 16.0433 157.414 16.9787 157.414 18.1037C157.414 19.1989 157.237 20.1236 156.884 20.8778C156.534 21.6278 156.057 22.1967 155.452 22.5845C154.851 22.968 154.178 23.1598 153.432 23.1598C152.904 23.1598 152.454 23.0724 152.083 22.8977C151.717 22.723 151.416 22.5036 151.182 22.2393C150.948 21.9709 150.769 21.7003 150.645 21.4276H150.524V23H147.839ZM150.504 18.0909C150.504 18.6747 150.585 19.1839 150.747 19.6186C150.909 20.0533 151.144 20.392 151.45 20.6349C151.757 20.8736 152.13 20.9929 152.569 20.9929C153.012 20.9929 153.387 20.8714 153.694 20.6286C154.001 20.3814 154.233 20.0405 154.391 19.6058C154.553 19.1669 154.634 18.6619 154.634 18.0909C154.634 17.5241 154.555 17.0256 154.397 16.5952C154.24 16.1648 154.007 15.8281 153.7 15.5852C153.394 15.3423 153.017 15.2209 152.569 15.2209C152.126 15.2209 151.751 15.3381 151.444 15.5724C151.142 15.8068 150.909 16.1392 150.747 16.5696C150.585 17 150.504 17.5071 150.504 18.0909ZM167.4 15.9815L164.907 16.1349C164.865 15.9219 164.773 15.7301 164.632 15.5597C164.492 15.3849 164.306 15.2464 164.076 15.1442C163.85 15.0376 163.58 14.9844 163.265 14.9844C162.843 14.9844 162.487 15.0739 162.197 15.2528C161.907 15.4276 161.762 15.6619 161.762 15.956C161.762 16.1903 161.856 16.3885 162.044 16.5504C162.231 16.7124 162.553 16.8423 163.009 16.9403L164.786 17.2983C165.74 17.4943 166.452 17.8097 166.921 18.2443C167.39 18.679 167.624 19.25 167.624 19.9574C167.624 20.6009 167.434 21.1655 167.055 21.6513C166.68 22.1371 166.164 22.5163 165.508 22.7891C164.856 23.0575 164.104 23.1918 163.252 23.1918C161.952 23.1918 160.917 22.9212 160.145 22.38C159.378 21.8345 158.929 21.093 158.797 20.1555L161.475 20.0149C161.556 20.4112 161.752 20.7138 162.063 20.9226C162.374 21.1271 162.772 21.2294 163.258 21.2294C163.735 21.2294 164.119 21.1378 164.409 20.9545C164.703 20.767 164.852 20.5263 164.856 20.2322C164.852 19.9851 164.748 19.7827 164.543 19.625C164.338 19.4631 164.023 19.3395 163.597 19.2543L161.897 18.9155C160.938 18.7237 160.224 18.3913 159.755 17.9183C159.291 17.4453 159.059 16.8423 159.059 16.1094C159.059 15.4787 159.229 14.9354 159.57 14.4794C159.915 14.0234 160.399 13.6719 161.021 13.4247C161.647 13.1776 162.38 13.054 163.22 13.054C164.46 13.054 165.436 13.3161 166.147 13.8402C166.863 14.3643 167.281 15.0781 167.4 15.9815ZM180.339 9.90909V23H177.949L172.253 14.7607H172.157V23H169.39V9.90909H171.819L177.469 18.142H177.584V9.90909H180.339ZM182.626 23V9.90909H191.294V12.1911H185.394V15.3104H190.718V17.5923H185.394V23H182.626ZM192.657 12.1911V9.90909H203.408V12.1911H199.4V23H196.665V12.1911H192.657Z" fill="white"/>
<path d="M48.7045 35V29.1818H50.6705C51.1269 29.1818 51.5 29.2642 51.7898 29.429C52.0814 29.5919 52.2973 29.8125 52.4375 30.0909C52.5777 30.3693 52.6477 30.6799 52.6477 31.0227C52.6477 31.3655 52.5777 31.6771 52.4375 31.9574C52.2992 32.2377 52.0852 32.4612 51.7955 32.6278C51.5057 32.7926 51.1345 32.875 50.6818 32.875H49.2727V32.25H50.6591C50.9716 32.25 51.2225 32.196 51.4119 32.0881C51.6013 31.9801 51.7386 31.8343 51.8239 31.6506C51.911 31.465 51.9545 31.2557 51.9545 31.0227C51.9545 30.7898 51.911 30.5814 51.8239 30.3977C51.7386 30.214 51.6004 30.0701 51.4091 29.9659C51.2178 29.8598 50.964 29.8068 50.6477 29.8068H49.4091V35H48.7045ZM55.4176 35.0909C55.0237 35.0909 54.678 34.9972 54.3807 34.8097C54.0852 34.6222 53.8542 34.3598 53.6875 34.0227C53.5227 33.6856 53.4403 33.2917 53.4403 32.8409C53.4403 32.3864 53.5227 31.9896 53.6875 31.6506C53.8542 31.3116 54.0852 31.0483 54.3807 30.8608C54.678 30.6733 55.0237 30.5795 55.4176 30.5795C55.8116 30.5795 56.1563 30.6733 56.4517 30.8608C56.7491 31.0483 56.9801 31.3116 57.1449 31.6506C57.3116 31.9896 57.3949 32.3864 57.3949 32.8409C57.3949 33.2917 57.3116 33.6856 57.1449 34.0227C56.9801 34.3598 56.7491 34.6222 56.4517 34.8097C56.1563 34.9972 55.8116 35.0909 55.4176 35.0909ZM55.4176 34.4886C55.7169 34.4886 55.9631 34.4119 56.1562 34.2585C56.3494 34.1051 56.4924 33.9034 56.5852 33.6534C56.678 33.4034 56.7244 33.1326 56.7244 32.8409C56.7244 32.5492 56.678 32.2775 56.5852 32.0256C56.4924 31.7737 56.3494 31.5701 56.1562 31.4148C55.9631 31.2595 55.7169 31.1818 55.4176 31.1818C55.1184 31.1818 54.8722 31.2595 54.679 31.4148C54.4858 31.5701 54.3428 31.7737 54.25 32.0256C54.1572 32.2775 54.1108 32.5492 54.1108 32.8409C54.1108 33.1326 54.1572 33.4034 54.25 33.6534C54.3428 33.9034 54.4858 34.1051 54.679 34.2585C54.8722 34.4119 55.1184 34.4886 55.4176 34.4886ZM59.2585 35L57.929 30.6364H58.6335L59.5767 33.9773H59.6222L60.554 30.6364H61.2699L62.1903 33.9659H62.2358L63.179 30.6364H63.8835L62.554 35H61.8949L60.9403 31.6477H60.8722L59.9176 35H59.2585ZM66.451 35.0909C66.0305 35.0909 65.6679 34.9981 65.3629 34.8125C65.0599 34.625 64.826 34.3636 64.6612 34.0284C64.4983 33.6913 64.4169 33.2992 64.4169 32.8523C64.4169 32.4053 64.4983 32.0114 64.6612 31.6705C64.826 31.3277 65.0552 31.0606 65.3487 30.8693C65.6442 30.6761 65.9889 30.5795 66.3828 30.5795C66.6101 30.5795 66.8345 30.6174 67.0561 30.6932C67.2777 30.7689 67.4794 30.892 67.6612 31.0625C67.843 31.2311 67.9879 31.4545 68.0959 31.733C68.2038 32.0114 68.2578 32.3542 68.2578 32.7614V33.0455H64.8942V32.4659H67.576C67.576 32.2197 67.5268 32 67.4283 31.8068C67.3317 31.6136 67.1934 31.4612 67.0135 31.3494C66.8355 31.2377 66.6252 31.1818 66.3828 31.1818C66.1158 31.1818 65.8847 31.2481 65.6896 31.3807C65.4964 31.5114 65.3478 31.6818 65.2436 31.892C65.1394 32.1023 65.0874 32.3277 65.0874 32.5682V32.9545C65.0874 33.2841 65.1442 33.5634 65.2578 33.7926C65.3733 34.0199 65.5334 34.1932 65.7379 34.3125C65.9425 34.4299 66.1802 34.4886 66.451 34.4886C66.6271 34.4886 66.7862 34.464 66.9283 34.4148C67.0722 34.3636 67.1963 34.2879 67.3004 34.1875C67.4046 34.0852 67.4851 33.9583 67.5419 33.8068L68.1896 33.9886C68.1214 34.2083 68.0069 34.4015 67.8459 34.5682C67.6849 34.733 67.486 34.8617 67.2493 34.9545C67.0125 35.0455 66.7464 35.0909 66.451 35.0909ZM69.2777 35V30.6364H69.9254V31.2955H69.9709C70.0504 31.0795 70.1944 30.9044 70.4027 30.7699C70.611 30.6354 70.8459 30.5682 71.1072 30.5682C71.1565 30.5682 71.218 30.5691 71.2919 30.571C71.3658 30.5729 71.4216 30.5758 71.4595 30.5795V31.2614C71.4368 31.2557 71.3847 31.2472 71.3033 31.2358C71.2237 31.2225 71.1394 31.2159 71.0504 31.2159C70.8383 31.2159 70.6489 31.2604 70.4822 31.3494C70.3175 31.4366 70.1868 31.5578 70.0902 31.7131C69.9955 31.8665 69.9482 32.0417 69.9482 32.2386V35H69.2777ZM73.951 35.0909C73.5305 35.0909 73.1679 34.9981 72.8629 34.8125C72.5599 34.625 72.326 34.3636 72.1612 34.0284C71.9983 33.6913 71.9169 33.2992 71.9169 32.8523C71.9169 32.4053 71.9983 32.0114 72.1612 31.6705C72.326 31.3277 72.5552 31.0606 72.8487 30.8693C73.1442 30.6761 73.4889 30.5795 73.8828 30.5795C74.1101 30.5795 74.3345 30.6174 74.5561 30.6932C74.7777 30.7689 74.9794 30.892 75.1612 31.0625C75.343 31.2311 75.4879 31.4545 75.5959 31.733C75.7038 32.0114 75.7578 32.3542 75.7578 32.7614V33.0455H72.3942V32.4659H75.076C75.076 32.2197 75.0268 32 74.9283 31.8068C74.8317 31.6136 74.6934 31.4612 74.5135 31.3494C74.3355 31.2377 74.1252 31.1818 73.8828 31.1818C73.6158 31.1818 73.3847 31.2481 73.1896 31.3807C72.9964 31.5114 72.8478 31.6818 72.7436 31.892C72.6394 32.1023 72.5874 32.3277 72.5874 32.5682V32.9545C72.5874 33.2841 72.6442 33.5634 72.7578 33.7926C72.8733 34.0199 73.0334 34.1932 73.2379 34.3125C73.4425 34.4299 73.6802 34.4886 73.951 34.4886C74.1271 34.4886 74.2862 34.464 74.4283 34.4148C74.5722 34.3636 74.6963 34.2879 74.8004 34.1875C74.9046 34.0852 74.9851 33.9583 75.0419 33.8068L75.6896 33.9886C75.6214 34.2083 75.5069 34.4015 75.3459 34.5682C75.1849 34.733 74.986 34.8617 74.7493 34.9545C74.5125 35.0455 74.2464 35.0909 73.951 35.0909ZM78.4254 35.0909C78.0618 35.0909 77.7408 34.9991 77.4624 34.8153C77.1839 34.6297 76.9661 34.3684 76.8089 34.0312C76.6518 33.6922 76.5732 33.2917 76.5732 32.8295C76.5732 32.3712 76.6518 31.9735 76.8089 31.6364C76.9661 31.2992 77.1849 31.0388 77.4652 30.8551C77.7455 30.6714 78.0694 30.5795 78.4368 30.5795C78.7209 30.5795 78.9453 30.6269 79.1101 30.7216C79.2768 30.8144 79.4036 30.9205 79.4908 31.0398C79.5798 31.1572 79.6489 31.2538 79.6982 31.3295H79.755V29.1818H80.4254V35H79.7777V34.3295H79.6982C79.6489 34.4091 79.5788 34.5095 79.4879 34.6307C79.397 34.75 79.2673 34.857 79.0987 34.9517C78.9302 35.0445 78.7057 35.0909 78.4254 35.0909ZM78.5163 34.4886C78.7853 34.4886 79.0125 34.4186 79.1982 34.2784C79.3838 34.1364 79.5249 33.9403 79.6214 33.6903C79.718 33.4384 79.7663 33.1477 79.7663 32.8182C79.7663 32.4924 79.719 32.2074 79.6243 31.9631C79.5296 31.7169 79.3894 31.5256 79.2038 31.3892C79.0182 31.2509 78.7891 31.1818 78.5163 31.1818C78.2322 31.1818 77.9955 31.2547 77.8061 31.4006C77.6186 31.5445 77.4775 31.7405 77.3828 31.9886C77.29 32.2348 77.2436 32.5114 77.2436 32.8182C77.2436 33.1288 77.291 33.411 77.3857 33.6648C77.4822 33.9167 77.6243 34.1174 77.8118 34.267C78.0012 34.4148 78.236 34.4886 78.5163 34.4886ZM84.0874 35V29.1818H84.7578V31.3295H84.8146C84.8639 31.2538 84.9321 31.1572 85.0192 31.0398C85.1082 30.9205 85.2351 30.8144 85.3999 30.7216C85.5665 30.6269 85.7919 30.5795 86.076 30.5795C86.4434 30.5795 86.7673 30.6714 87.0476 30.8551C87.3279 31.0388 87.5466 31.2992 87.7038 31.6364C87.861 31.9735 87.9396 32.3712 87.9396 32.8295C87.9396 33.2917 87.861 33.6922 87.7038 34.0312C87.5466 34.3684 87.3288 34.6297 87.0504 34.8153C86.772 34.9991 86.451 35.0909 86.0874 35.0909C85.8071 35.0909 85.5826 35.0445 85.4141 34.9517C85.2455 34.857 85.1158 34.75 85.0249 34.6307C84.9339 34.5095 84.8639 34.4091 84.8146 34.3295H84.7351V35H84.0874ZM84.7464 32.8182C84.7464 33.1477 84.7947 33.4384 84.8913 33.6903C84.9879 33.9403 85.129 34.1364 85.3146 34.2784C85.5002 34.4186 85.7275 34.4886 85.9964 34.4886C86.2768 34.4886 86.5107 34.4148 86.6982 34.267C86.8875 34.1174 87.0296 33.9167 87.1243 33.6648C87.2209 33.411 87.2692 33.1288 87.2692 32.8182C87.2692 32.5114 87.2218 32.2348 87.1271 31.9886C87.0343 31.7405 86.8932 31.5445 86.7038 31.4006C86.5163 31.2547 86.2805 31.1818 85.9964 31.1818C85.7237 31.1818 85.4946 31.2509 85.3089 31.3892C85.1233 31.5256 84.9832 31.7169 84.8885 31.9631C84.7938 32.2074 84.7464 32.4924 84.7464 32.8182ZM89.2408 36.6364C89.1271 36.6364 89.0258 36.6269 88.9368 36.608C88.8478 36.5909 88.7862 36.5739 88.7521 36.5568L88.9226 35.9659C89.0855 36.0076 89.2294 36.0227 89.3544 36.0114C89.4794 36 89.5902 35.9441 89.6868 35.8438C89.7853 35.7453 89.8752 35.5852 89.9567 35.3636L90.0817 35.0227L88.468 30.6364H89.1953L90.3999 34.1136H90.4453L91.6499 30.6364H92.3771L90.5249 35.6364C90.4415 35.8617 90.3383 36.0483 90.2152 36.196C90.0921 36.3456 89.9491 36.4564 89.7862 36.5284C89.6252 36.6004 89.4434 36.6364 89.2408 36.6364ZM100.796 31.2188H99.5689C99.5727 31.0559 99.5518 30.9119 99.5064 30.7869C99.4609 30.66 99.3928 30.5521 99.3018 30.4631C99.2128 30.3741 99.1039 30.3068 98.9751 30.2614C98.8464 30.214 98.7015 30.1903 98.5405 30.1903C98.2299 30.1903 97.9448 30.268 97.6854 30.4233C97.4259 30.5786 97.2071 30.804 97.0291 31.0994C96.8511 31.393 96.728 31.7481 96.6598 32.1648C96.5935 32.5663 96.5973 32.9025 96.6712 33.1733C96.745 33.4441 96.8757 33.6487 97.0632 33.7869C97.2526 33.9233 97.4884 33.9915 97.7706 33.9915C97.9448 33.9915 98.1106 33.9697 98.2678 33.9261C98.425 33.8807 98.5679 33.8163 98.6967 33.733C98.8274 33.6477 98.9411 33.5445 99.0376 33.4233C99.1361 33.3021 99.2128 33.1648 99.2678 33.0114H100.504C100.426 33.2784 100.305 33.536 100.14 33.7841C99.977 34.0322 99.7753 34.2538 99.5348 34.4489C99.2943 34.642 99.0206 34.7955 98.7138 34.9091C98.407 35.0227 98.0708 35.0795 97.7053 35.0795C97.1768 35.0795 96.7232 34.9583 96.3445 34.7159C95.9676 34.4735 95.6958 34.1241 95.5291 33.6676C95.3625 33.2112 95.3312 32.661 95.4354 32.017C95.5395 31.3939 95.7431 30.8655 96.0462 30.4318C96.3511 29.9962 96.7214 29.6657 97.157 29.4403C97.5945 29.215 98.0623 29.1023 98.5604 29.1023C98.907 29.1023 99.2204 29.1496 99.5007 29.2443C99.781 29.339 100.02 29.4773 100.217 29.6591C100.415 29.839 100.565 30.0597 100.665 30.321C100.766 30.5824 100.809 30.8816 100.796 31.2188ZM102.67 32.4773L102.249 35H101.042L102.008 29.1818H103.181L102.817 31.4062H102.866C103.006 31.1487 103.198 30.947 103.442 30.8011C103.687 30.6534 103.976 30.5795 104.309 30.5795C104.612 30.5795 104.865 30.6458 105.067 30.7784C105.272 30.9091 105.417 31.0975 105.502 31.3438C105.587 31.5881 105.602 31.8807 105.545 32.2216L105.079 35H103.871L104.298 32.4375C104.341 32.1686 104.306 31.9593 104.192 31.8097C104.081 31.66 103.903 31.5852 103.658 31.5852C103.494 31.5852 103.342 31.6203 103.204 31.6903C103.066 31.7604 102.949 31.8627 102.854 31.9972C102.762 32.1297 102.7 32.2898 102.67 32.4773ZM108.003 35.0852C107.556 35.0852 107.186 34.9943 106.892 34.8125C106.598 34.6288 106.392 34.3693 106.273 34.0341C106.155 33.697 106.135 33.2983 106.213 32.8381C106.289 32.3892 106.441 31.9953 106.67 31.6562C106.902 31.3172 107.191 31.053 107.54 30.8636C107.888 30.6742 108.277 30.5795 108.705 30.5795C108.992 30.5795 109.253 30.6259 109.486 30.7188C109.721 30.8097 109.916 30.9479 110.071 31.1335C110.226 31.3172 110.332 31.5473 110.389 31.8239C110.448 32.1004 110.447 32.4242 110.386 32.7955L110.332 33.1278H106.651L106.767 32.3778H109.312C109.341 32.2036 109.33 32.0492 109.278 31.9148C109.227 31.7803 109.142 31.6752 109.023 31.5994C108.903 31.5218 108.757 31.483 108.582 31.483C108.404 31.483 108.238 31.5265 108.082 31.6136C107.927 31.7008 107.796 31.8153 107.69 31.9574C107.586 32.0975 107.519 32.25 107.489 32.4148L107.355 33.1591C107.317 33.3883 107.325 33.5786 107.378 33.7301C107.433 33.8816 107.527 33.9953 107.662 34.071C107.796 34.1449 107.967 34.1818 108.173 34.1818C108.308 34.1818 108.434 34.1629 108.551 34.125C108.67 34.0871 108.777 34.0312 108.869 33.9574C108.962 33.8816 109.038 33.7879 109.097 33.6761L110.202 33.75C110.099 34.0189 109.944 34.2538 109.736 34.4545C109.527 34.6534 109.277 34.8087 108.983 34.9205C108.691 35.0303 108.365 35.0852 108.003 35.0852ZM110.815 35L111.542 30.6364H112.715L112.587 31.3977H112.633C112.758 31.1269 112.925 30.9223 113.136 30.7841C113.348 30.6439 113.576 30.5739 113.82 30.5739C113.881 30.5739 113.944 30.5777 114.011 30.5852C114.079 30.5909 114.139 30.6004 114.192 30.6136L114.011 31.6903C113.958 31.6714 113.882 31.6562 113.783 31.6449C113.687 31.6316 113.595 31.625 113.508 31.625C113.332 31.625 113.168 31.6638 113.016 31.7415C112.865 31.8172 112.737 31.9233 112.633 32.0597C112.531 32.196 112.463 32.3532 112.431 32.5312L112.025 35H110.815ZM114.088 35L114.815 30.6364H115.989L115.861 31.3977H115.906C116.031 31.1269 116.199 30.9223 116.409 30.7841C116.621 30.6439 116.849 30.5739 117.094 30.5739C117.154 30.5739 117.218 30.5777 117.284 30.5852C117.352 30.5909 117.413 30.6004 117.466 30.6136L117.284 31.6903C117.231 31.6714 117.155 31.6562 117.057 31.6449C116.96 31.6316 116.868 31.625 116.781 31.625C116.605 31.625 116.441 31.6638 116.29 31.7415C116.138 31.8172 116.01 31.9233 115.906 32.0597C115.804 32.196 115.737 32.3532 115.705 32.5312L115.298 35H114.088ZM117.974 36.6364C117.819 36.6364 117.677 36.6241 117.548 36.5994C117.42 36.5767 117.313 36.5473 117.23 36.5114L117.656 35.608C117.791 35.6515 117.913 35.6742 118.023 35.6761C118.134 35.678 118.237 35.6496 118.33 35.5909C118.422 35.5322 118.508 35.4356 118.585 35.3011L118.693 35.1165L117.875 30.6364H119.102L119.472 33.8466H119.517L120.963 30.6364H122.29L119.793 35.4716C119.67 35.7083 119.524 35.9138 119.355 36.0881C119.188 36.2623 118.991 36.3968 118.761 36.4915C118.534 36.5881 118.272 36.6364 117.974 36.6364ZM124.255 35L125.221 29.1818H125.925L125.062 34.375H127.766L127.664 35H124.255ZM129.937 35.1023C129.66 35.1023 129.418 35.0502 129.21 34.946C129.001 34.84 128.847 34.6875 128.746 34.4886C128.646 34.2879 128.619 34.0455 128.664 33.7614C128.708 33.5114 128.792 33.3087 128.917 33.1534C129.042 32.9962 129.193 32.8731 129.371 32.7841C129.551 32.6932 129.745 32.6259 129.951 32.5824C130.159 32.5369 130.367 32.5019 130.573 32.4773C130.842 32.4432 131.061 32.4167 131.229 32.3977C131.398 32.3788 131.525 32.3475 131.61 32.304C131.695 32.2604 131.747 32.1856 131.766 32.0795V32.0568C131.812 31.7784 131.775 31.5616 131.656 31.4062C131.536 31.2491 131.323 31.1705 131.016 31.1705C130.698 31.1705 130.432 31.2405 130.218 31.3807C130.004 31.5208 129.846 31.6705 129.744 31.8295L129.153 31.6023C129.308 31.3371 129.494 31.1307 129.71 30.983C129.925 30.8333 130.152 30.7292 130.388 30.6705C130.625 30.6098 130.853 30.5795 131.073 30.5795C131.213 30.5795 131.371 30.5966 131.548 30.6307C131.724 30.6629 131.888 30.7301 132.042 30.8324C132.197 30.9347 132.314 31.089 132.391 31.2955C132.471 31.5019 132.482 31.7784 132.425 32.125L131.948 35H131.278L131.38 34.4091H131.346C131.285 34.5038 131.192 34.6051 131.067 34.7131C130.944 34.821 130.788 34.9129 130.599 34.9886C130.411 35.0644 130.191 35.1023 129.937 35.1023ZM130.13 34.5C130.395 34.5 130.627 34.4479 130.826 34.3438C131.027 34.2396 131.188 34.1051 131.309 33.9403C131.432 33.7756 131.509 33.6023 131.539 33.4205L131.641 32.8068C131.607 32.8409 131.54 32.8722 131.44 32.9006C131.339 32.9271 131.226 32.9508 131.099 32.9716C130.974 32.9905 130.852 33.0076 130.732 33.0227C130.615 33.036 130.52 33.0473 130.448 33.0568C130.27 33.0795 130.101 33.1165 129.94 33.1676C129.781 33.2169 129.646 33.2917 129.536 33.392C129.428 33.4905 129.361 33.625 129.335 33.7955C129.295 34.0284 129.351 34.2045 129.502 34.3239C129.654 34.4413 129.863 34.5 130.13 34.5ZM133.263 35L134.229 29.1818H134.899L134.547 31.3295H134.604C134.664 31.2538 134.749 31.1572 134.857 31.0398C134.964 30.9205 135.109 30.8144 135.291 30.7216C135.473 30.6269 135.706 30.5795 135.99 30.5795C136.357 30.5795 136.665 30.6714 136.913 30.8551C137.163 31.0388 137.339 31.2992 137.439 31.6364C137.541 31.9735 137.554 32.3712 137.479 32.8295C137.403 33.2917 137.258 33.6922 137.044 34.0312C136.832 34.3684 136.571 34.6297 136.26 34.8153C135.951 34.9991 135.615 35.0909 135.251 35.0909C134.971 35.0909 134.754 35.0445 134.601 34.9517C134.449 34.857 134.338 34.75 134.266 34.6307C134.196 34.5095 134.142 34.4091 134.104 34.3295H134.024L133.911 35H133.263ZM134.286 32.8182C134.232 33.1477 134.233 33.4384 134.288 33.6903C134.343 33.9403 134.452 34.1364 134.615 34.2784C134.778 34.4186 134.994 34.4886 135.263 34.4886C135.543 34.4886 135.789 34.4148 136.001 34.267C136.214 34.1174 136.388 33.9167 136.524 33.6648C136.661 33.411 136.755 33.1288 136.808 32.8182C136.857 32.5114 136.856 32.2348 136.803 31.9886C136.751 31.7405 136.643 31.5445 136.479 31.4006C136.316 31.2547 136.092 31.1818 135.808 31.1818C135.536 31.1818 135.294 31.2509 135.084 31.3892C134.875 31.5256 134.703 31.7169 134.567 31.9631C134.432 32.2074 134.339 32.4924 134.286 32.8182ZM141.8 31.6136L141.163 31.7841C141.141 31.6818 141.101 31.5833 141.044 31.4886C140.989 31.392 140.904 31.3134 140.788 31.2528C140.675 31.1903 140.519 31.1591 140.322 31.1591C140.055 31.1591 139.823 31.2206 139.626 31.3438C139.429 31.465 139.317 31.6193 139.288 31.8068C139.26 31.9716 139.298 32.1032 139.402 32.2017C139.506 32.3002 139.68 32.3807 139.925 32.4432L140.55 32.6023C140.925 32.6989 141.192 32.8437 141.351 33.0369C141.512 33.2282 141.567 33.4773 141.516 33.7841C141.474 34.0341 141.365 34.2576 141.189 34.4545C141.013 34.6515 140.787 34.8068 140.513 34.9205C140.238 35.0341 139.932 35.0909 139.595 35.0909C139.146 35.0909 138.792 34.9943 138.533 34.8011C138.273 34.6061 138.135 34.3239 138.118 33.9545L138.788 33.7955C138.805 34.0284 138.889 34.2045 139.038 34.3239C139.19 34.4413 139.402 34.5 139.675 34.5C139.987 34.5 140.248 34.4337 140.456 34.3011C140.664 34.1667 140.783 34.0057 140.811 33.8182C140.839 33.6648 140.809 33.5369 140.72 33.4347C140.633 33.3324 140.482 33.2557 140.266 33.2045L139.572 33.0341C139.186 32.9375 138.915 32.7898 138.76 32.5909C138.607 32.392 138.555 32.142 138.607 31.8409C138.648 31.5947 138.754 31.3769 138.925 31.1875C139.097 30.9981 139.313 30.8494 139.572 30.7415C139.834 30.6335 140.118 30.5795 140.425 30.5795C140.857 30.5795 141.179 30.6742 141.393 30.8636C141.607 31.0511 141.743 31.3011 141.8 31.6136Z" fill="white"/>
<rect width="42" height="42" rx="8" fill="white"/>
<path d="M15.7443 15.3636V27H13.6193L8.55682 19.6761H8.47159V27H6.01136V15.3636H8.17045L13.1932 22.6818H13.2955V15.3636H15.7443ZM17.777 27V15.3636H25.4815V17.392H20.2372V20.1648H24.9702V22.1932H20.2372V27H17.777ZM26.6932 17.392V15.3636H36.25V17.392H32.6875V27H30.2557V17.392H26.6932Z" fill="black"/>
</svg>
